<svg xmlns="http://www.w3.org/2000/svg" width="100" height="100" viewBox="0 0 100 100">
  <g id="Group_72" data-name="Group 72" transform="translate(458.046 -185.954)">
    <circle id="Ellipse_37" data-name="Ellipse 37" cx="50" cy="50" r="50" transform="translate(-458.046 185.954)" fill="#6a6a6a"/>
    <g id="Group_71" data-name="Group 71" transform="translate(-430.457 194.113)">
      <g id="Path_356" data-name="Path 356" transform="translate(-124.111 -272.646)" fill="#fff">
        <path d="M 166.6309661865234 332.0589599609375 C 165.80078125 332.0589599609375 165.1253814697266 331.3820495605469 165.1253814697266 330.5499877929688 C 165.1253814697266 328.198974609375 163.2296447753906 326.2862548828125 160.8994598388672 326.2862548828125 L 131.9404907226562 326.2862548828125 C 129.6104736328125 326.2862548828125 127.7148818969727 328.198974609375 127.7148818969727 330.5499877929688 C 127.7148818969727 331.3820495605469 127.0396118164062 332.0589599609375 126.2095947265625 332.0589599609375 C 125.37939453125 332.0589599609375 124.7039794921875 331.3820495605469 124.7039794921875 330.5499877929688 C 124.7039794921875 326.5346984863281 127.9502563476562 323.2680053710938 131.9404907226562 323.2680053710938 L 160.8994598388672 323.2680053710938 C 164.8900146484375 323.2680053710938 168.1365814208984 326.5346984863281 168.1365814208984 330.5499877929688 C 168.1365814208984 331.3820495605469 167.4611663818359 332.0589599609375 166.6309661865234 332.0589599609375 Z" stroke="none"/>
        <path d="M 166.6309661865234 331.0589599609375 C 166.9105529785156 331.0589599609375 167.1365814208984 330.8312377929688 167.1365814208984 330.5499877929688 C 167.1365814208984 327.0863037109375 164.3386688232422 324.2680053710938 160.8994598388672 324.2680053710938 L 131.9404907226562 324.2680053710938 C 128.5015716552734 324.2680053710938 125.7039794921875 327.0863037109375 125.7039794921875 330.5499877929688 C 125.7039794921875 330.8312377929688 125.9303207397461 331.0589599609375 126.2095947265625 331.0589599609375 C 126.488525390625 331.0589599609375 126.7148818969727 330.8312377929688 126.7148818969727 330.5499877929688 C 126.7148818969727 327.6476440429688 129.0591583251953 325.2862548828125 131.9404907226562 325.2862548828125 L 160.8994598388672 325.2862548828125 C 163.7814025878906 325.2862548828125 166.1253814697266 327.6476440429688 166.1253814697266 330.5499877929688 C 166.1253814697266 330.8312377929688 166.3517150878906 331.0589599609375 166.6309661865234 331.0589599609375 M 166.6309661865234 333.0589599609375 C 165.2493743896484 333.0589599609375 164.1253814697266 331.9334411621094 164.1253814697266 330.5499877929688 C 164.1253814697266 328.7503662109375 162.6782379150391 327.2862548828125 160.8994598388672 327.2862548828125 L 131.9404907226562 327.2862548828125 C 130.1618804931641 327.2862548828125 128.7148742675781 328.7503662109375 128.7148742675781 330.5499877929688 C 128.7148742675781 331.9334411621094 127.5910186767578 333.0589599609375 126.2095947265625 333.0589599609375 C 124.827995300293 333.0589599609375 123.7039794921875 331.9334411621094 123.7039794921875 330.5499877929688 C 123.7039794921875 325.9833068847656 127.3988571166992 322.2680053710938 131.9404907226562 322.2680053710938 L 160.8994598388672 322.2680053710938 C 165.4414215087891 322.2680053710938 169.1365814208984 325.9833068847656 169.1365814208984 330.5499877929688 C 169.1365814208984 331.9334411621094 168.0125732421875 333.0589599609375 166.6309661865234 333.0589599609375 Z" stroke="none" fill="#fff"/>
      </g>
      <g id="Path_357" data-name="Path 357" transform="translate(-125.22 -331.831)" fill="#fff">
        <path d="M 162.0062103271484 416.0039367675781 L 133.0522155761719 416.0039367675781 C 130.2093658447266 416.0039367675781 127.618522644043 414.3177795410156 126.4517364501953 411.7082214355469 C 126.1133346557617 410.9514770507812 126.4509582519531 410.0575256347656 127.2043685913086 409.7155151367188 C 127.403564453125 409.6260986328125 127.6109390258789 409.5816040039062 127.8244934082031 409.5816040039062 C 128.4176025390625 409.5816040039062 128.9571533203125 409.9317626953125 129.1991119384766 410.4736328125 C 129.8813018798828 411.9994506835938 131.3938140869141 412.9856567382812 133.0522155761719 412.9856567382812 L 162.0062103271484 412.9856567382812 C 163.7068939208984 412.9856567382812 165.2350463867188 411.9640197753906 165.8993530273438 410.3829650878906 C 166.1335601806641 409.8226318359375 166.6783294677734 409.4594421386719 167.2864990234375 409.4594421386719 C 167.4905548095703 409.4594421386719 167.6893768310547 409.5002746582031 167.87744140625 409.5808410644531 C 168.6360321044922 409.90283203125 168.9950408935547 410.7882385253906 168.6746826171875 411.5532836914062 C 167.5389862060547 414.2573547363281 164.9216156005859 416.0039367675781 162.0062103271484 416.0039367675781 Z" stroke="none"/>
        <path d="M 162.0062103271484 415.0039367675781 C 164.5178833007812 415.0039367675781 166.7736663818359 413.4971008300781 167.7522888183594 411.1670532226562 C 167.8606262207031 410.9083251953125 167.7407989501953 410.6091918945312 167.4836883544922 410.5000610351562 C 167.2274780273438 410.390380859375 166.9299468994141 410.5104064941406 166.8212890625 410.7703247070312 C 166.0007781982422 412.72314453125 164.1113433837891 413.9856567382812 162.0062103271484 413.9856567382812 L 133.0522155761719 413.9856567382812 C 131.0003051757812 413.9856567382812 129.1292266845703 412.767333984375 128.2859954833984 410.88134765625 C 128.1717529296875 410.6254577636719 127.8726425170898 410.5117492675781 127.6177062988281 410.6260986328125 C 127.3627777099609 410.7418212890625 127.2497863769531 411.043212890625 127.3646392822266 411.300048828125 C 128.3706665039062 413.550048828125 130.6034240722656 415.0039367675781 133.0522155761719 415.0039367675781 L 162.0062103271484 415.0039367675781 M 162.0062103271484 417.0039367675781 L 133.0522155761719 417.0039367675781 C 129.8155517578125 417.0039367675781 126.8663635253906 415.08544921875 125.5388336181641 412.1164245605469 C 124.9766159057617 410.859130859375 125.5383377075195 409.3735961914062 126.7910385131836 408.804931640625 L 126.7986145019531 408.801513671875 C 127.1236724853516 408.6555786132812 127.4688339233398 408.5816040039062 127.8244934082031 408.5816040039062 C 128.8116607666016 408.5816040039062 129.7096557617188 409.1642761230469 130.1122436523438 410.0659790039062 C 130.6334686279297 411.2317504882812 131.7876434326172 411.9856567382812 133.0522155761719 411.9856567382812 L 162.0062103271484 411.9856567382812 C 163.30322265625 411.9856567382812 164.469482421875 411.2045288085938 164.9774322509766 409.99560546875 C 165.3668823242188 409.0637817382812 166.2738189697266 408.4594421386719 167.2864990234375 408.4594421386719 C 167.6247100830078 408.4594421386719 167.9541320800781 408.5266723632812 168.2657165527344 408.6593017578125 C 169.531982421875 409.1972045898438 170.1292877197266 410.6685791015625 169.5970764160156 411.9395446777344 C 168.3046264648438 415.0168151855469 165.3253631591797 417.0039367675781 162.0062103271484 417.0039367675781 Z" stroke="none" fill="#fff"/>
      </g>
      <g id="Path_358" data-name="Path 358" transform="translate(-147.416 -289.239)" fill="#fff">
        <path d="M 176.4656677246094 358.5547485351562 L 164.5081939697266 358.5547485351562 C 161.1577758789062 358.5547485351562 158.4320068359375 355.8289489746094 158.4320068359375 352.478515625 L 158.4320068359375 348.9392395019531 C 158.4320068359375 348.1070556640625 159.1090698242188 347.4299926757812 159.9412841796875 347.4299926757812 L 164.3953247070312 347.4299926757812 C 165.2275238037109 347.4299926757812 165.9045715332031 348.1070556640625 165.9045715332031 348.9392395019531 C 165.9045715332031 349.7713012695312 165.2275238037109 350.4482116699219 164.3953247070312 350.4482116699219 L 161.4505615234375 350.4482116699219 L 161.4505615234375 352.478515625 C 161.4505615234375 354.1644897460938 162.8222045898438 355.5361328125 164.5081939697266 355.5361328125 L 176.4656677246094 355.5361328125 C 178.1520080566406 355.5361328125 179.52392578125 354.1644897460938 179.52392578125 352.478515625 C 179.52392578125 351.646484375 180.2009887695312 350.9695434570312 181.033203125 350.9695434570312 C 181.8652496337891 350.9695434570312 182.5421752929688 351.646484375 182.5421752929688 352.478515625 C 182.5421752929688 355.8289489746094 179.8162536621094 358.5547485351562 176.4656677246094 358.5547485351562 Z" stroke="none"/>
        <path d="M 176.4656677246094 357.5547485351562 C 179.26513671875 357.5547485351562 181.5421752929688 355.2773742675781 181.5421752929688 352.478515625 C 181.5421752929688 352.1972045898438 181.3144989013672 351.9695434570312 181.033203125 351.9695434570312 C 180.7519073486328 351.9695434570312 180.52392578125 352.1972045898438 180.52392578125 352.478515625 C 180.52392578125 354.716064453125 178.7038116455078 356.5361328125 176.4656677246094 356.5361328125 L 164.5081939697266 356.5361328125 C 162.2706909179688 356.5361328125 160.4505615234375 354.716064453125 160.4505615234375 352.478515625 L 160.4505615234375 349.4482116699219 L 164.3953247070312 349.4482116699219 C 164.6769104003906 349.4482116699219 164.9045715332031 349.2205505371094 164.9045715332031 348.9392395019531 C 164.9045715332031 348.6576538085938 164.6769104003906 348.4299926757812 164.3953247070312 348.4299926757812 L 159.9412841796875 348.4299926757812 C 159.6599731445312 348.4299926757812 159.4320068359375 348.6576538085938 159.4320068359375 348.9392395019531 L 159.4320068359375 352.478515625 C 159.4320068359375 355.2773742675781 161.7093353271484 357.5547485351562 164.5081939697266 357.5547485351562 L 176.4656677246094 357.5547485351562 M 176.4656677246094 359.5547485351562 L 164.5081939697266 359.5547485351562 C 160.6063690185547 359.5547485351562 157.4320068359375 356.38037109375 157.4320068359375 352.478515625 L 157.4320068359375 348.9392395019531 C 157.4320068359375 347.5556335449219 158.5576629638672 346.4299926757812 159.9412841796875 346.4299926757812 L 164.3953247070312 346.4299926757812 C 165.7789306640625 346.4299926757812 166.9045715332031 347.5556335449219 166.9045715332031 348.9392395019531 C 166.9045715332031 350.3226928710938 165.7789306640625 351.4482116699219 164.3953247070312 351.4482116699219 L 162.4505615234375 351.4482116699219 L 162.4505615234375 352.478515625 C 162.4505615234375 353.6130981445312 163.3736114501953 354.5361328125 164.5081939697266 354.5361328125 L 176.4656677246094 354.5361328125 C 177.6006011962891 354.5361328125 178.52392578125 353.6130981445312 178.52392578125 352.478515625 C 178.52392578125 351.0950622558594 179.6495819091797 349.9695434570312 181.033203125 349.9695434570312 C 182.4166564941406 349.9695434570312 183.5421752929688 351.0950622558594 183.5421752929688 352.478515625 C 183.5421752929688 356.38037109375 180.36767578125 359.5547485351562 176.4656677246094 359.5547485351562 Z" stroke="none" fill="#fff"/>
      </g>
      <g id="Path_359" data-name="Path 359" transform="translate(-170.499 -306.994)" fill="#fff">
        <path d="M 193.5702819824219 391.1696166992188 C 192.7380676269531 391.1696166992188 192.0610046386719 390.4925537109375 192.0610046386719 389.6603393554688 L 192.0610046386719 374.7882690429688 C 192.0610046386719 373.9560546875 192.7380676269531 373.2789916992188 193.5702819824219 373.2789916992188 C 194.4024963378906 373.2789916992188 195.0795593261719 373.9560546875 195.0795593261719 374.7882690429688 L 195.0795593261719 389.6603393554688 C 195.0795593261719 390.4925537109375 194.4024963378906 391.1696166992188 193.5702819824219 391.1696166992188 Z" stroke="none"/>
        <path d="M 193.5702819824219 390.1696166992188 C 193.8515777587891 390.1696166992188 194.0795593261719 389.9415893554688 194.0795593261719 389.6603393554688 L 194.0795593261719 374.7882690429688 C 194.0795593261719 374.5072937011719 193.8515777587891 374.2789916992188 193.5702819824219 374.2789916992188 C 193.2889862060547 374.2789916992188 193.0610046386719 374.5072937011719 193.0610046386719 374.7882690429688 L 193.0610046386719 389.6603393554688 C 193.0610046386719 389.9415893554688 193.2889862060547 390.1696166992188 193.5702819824219 390.1696166992188 M 193.5702819824219 392.1696166992188 C 192.1866607666016 392.1696166992188 191.0610046386719 391.0439758300781 191.0610046386719 389.6603393554688 L 191.0610046386719 374.7882690429688 C 191.0610046386719 373.4046630859375 192.1866607666016 372.2789916992188 193.5702819824219 372.2789916992188 C 194.9539031982422 372.2789916992188 196.0795593261719 373.4046630859375 196.0795593261719 374.7882690429688 L 196.0795593261719 389.6603393554688 C 196.0795593261719 391.0439758300781 194.9539031982422 392.1696166992188 193.5702819824219 392.1696166992188 Z" stroke="none" fill="#fff"/>
      </g>
      <g id="Path_360" data-name="Path 360" transform="translate(-147.416 -323.434)" fill="#fff">
        <path d="M 181.033203125 400.2535400390625 L 159.9412841796875 400.2535400390625 C 159.1090698242188 400.2535400390625 158.4320068359375 399.5764770507812 158.4320068359375 398.7442626953125 C 158.4320068359375 397.9120483398438 159.1090698242188 397.2349853515625 159.9412841796875 397.2349853515625 L 181.033203125 397.2349853515625 C 181.8652496337891 397.2349853515625 182.5421752929688 397.9120483398438 182.5421752929688 398.7442626953125 C 182.5421752929688 399.5764770507812 181.8652496337891 400.2535400390625 181.033203125 400.2535400390625 Z" stroke="none"/>
        <path d="M 181.033203125 399.2535400390625 C 181.3144989013672 399.2535400390625 181.5421752929688 399.0261840820312 181.5421752929688 398.7442626953125 C 181.5421752929688 398.462646484375 181.3144989013672 398.2349853515625 181.033203125 398.2349853515625 L 159.9412841796875 398.2349853515625 C 159.6599731445312 398.2349853515625 159.4320068359375 398.462646484375 159.4320068359375 398.7442626953125 C 159.4320068359375 399.0261840820312 159.6599731445312 399.2535400390625 159.9412841796875 399.2535400390625 L 181.033203125 399.2535400390625 M 181.033203125 401.2535400390625 L 159.9412841796875 401.2535400390625 C 158.5576629638672 401.2535400390625 157.4320068359375 400.1278686523438 157.4320068359375 398.7442626953125 C 157.4320068359375 397.3606567382812 158.5576629638672 396.2349853515625 159.9412841796875 396.2349853515625 L 181.033203125 396.2349853515625 C 182.4166564941406 396.2349853515625 183.5421752929688 397.3606567382812 183.5421752929688 398.7442626953125 C 183.5421752929688 400.1278686523438 182.4166564941406 401.2535400390625 181.033203125 401.2535400390625 Z" stroke="none" fill="#fff"/>
      </g>
      <g id="Path_361" data-name="Path 361" transform="translate(-132.383 -159.537)" fill="#fff">
        <path d="M 150.1098022460938 198.5467224121094 C 142.6643371582031 198.5467224121094 136.6069946289062 192.4895172119141 136.6069946289062 185.0442199707031 L 136.6069946289062 160.0489501953125 C 136.6069946289062 159.2169036865234 137.2840576171875 158.5399780273438 138.1162719726562 158.5399780273438 C 138.9485015869141 158.5399780273438 139.6255493164062 159.2169036865234 139.6255493164062 160.0489501953125 L 139.6255493164062 185.0442199707031 C 139.6255493164062 190.8250732421875 144.3287658691406 195.5281524658203 150.1098022460938 195.5281524658203 C 150.9418487548828 195.5281524658203 151.6187744140625 196.2052154541016 151.6187744140625 197.0374450683594 C 151.6187744140625 197.8696594238281 150.9418487548828 198.5467224121094 150.1098022460938 198.5467224121094 Z" stroke="none"/>
        <path d="M 150.1098022460938 197.5467224121094 C 150.3910827636719 197.5467224121094 150.6187744140625 197.3187255859375 150.6187744140625 197.0374450683594 C 150.6187744140625 196.7561340332031 150.3910827636719 196.5281524658203 150.1098022460938 196.5281524658203 C 143.7773132324219 196.5281524658203 138.6255493164062 191.376708984375 138.6255493164062 185.0442199707031 L 138.6255493164062 160.0489501953125 C 138.6255493164062 159.7679748535156 138.3975524902344 159.5399780273438 138.1162719726562 159.5399780273438 C 137.8349609375 159.5399780273438 137.6069946289062 159.7679748535156 137.6069946289062 160.0489501953125 L 137.6069946289062 185.0442199707031 C 137.6069946289062 191.9380340576172 143.2159881591797 197.5467224121094 150.1098022460938 197.5467224121094 M 150.1098022460938 199.5467224121094 C 142.1129302978516 199.5467224121094 135.6069946289062 193.0409240722656 135.6069946289062 185.0442199707031 L 135.6069946289062 160.0489501953125 C 135.6069946289062 158.6654968261719 136.7326507568359 157.5399780273438 138.1162719726562 157.5399780273438 C 139.4998931884766 157.5399780273438 140.6255493164062 158.6654968261719 140.6255493164062 160.0489501953125 L 140.6255493164062 185.0442199707031 C 140.6255493164062 190.273681640625 144.8801727294922 194.5281524658203 150.1098022460938 194.5281524658203 C 151.4932556152344 194.5281524658203 152.6187744140625 195.6538238525391 152.6187744140625 197.0374450683594 C 152.6187744140625 198.4210662841797 151.4932556152344 199.5467224121094 150.1098022460938 199.5467224121094 Z" stroke="none" fill="#fff"/>
      </g>
      <g id="Path_362" data-name="Path 362" transform="translate(-182.258 -177.456)" fill="#fff">
        <path d="M 212.850830078125 192.0556488037109 C 210.8085327148438 192.0556488037109 209.1470031738281 190.3942565917969 209.1470031738281 188.3521270751953 C 209.1470031738281 186.3096466064453 210.8085327148438 184.6479797363281 212.850830078125 184.6479797363281 C 214.8931274414062 184.6479797363281 216.5546722412109 186.3096466064453 216.5546722412109 188.3521270751953 C 216.5546722412109 190.3942565917969 214.8931274414062 192.0556488037109 212.850830078125 192.0556488037109 Z M 212.850830078125 187.6662292480469 C 212.4727935791016 187.6662292480469 212.1652526855469 187.9739227294922 212.1652526855469 188.3521270751953 C 212.1652526855469 188.72998046875 212.4727935791016 189.0373992919922 212.850830078125 189.0373992919922 C 213.2288665771484 189.0373992919922 213.5364074707031 188.72998046875 213.5364074707031 188.3521270751953 C 213.5364074707031 187.9739227294922 213.2288665771484 187.6662292480469 212.850830078125 187.6662292480469 Z" stroke="none"/>
        <path d="M 212.850830078125 185.6479797363281 C 211.3574829101562 185.6479797363281 210.1470031738281 186.8584747314453 210.1470031738281 188.3521270751953 C 210.1470031738281 189.8451843261719 211.3574829101562 191.0556488037109 212.850830078125 191.0556488037109 C 214.3441772460938 191.0556488037109 215.5546722412109 189.8451843261719 215.5546722412109 188.3521270751953 C 215.5546722412109 186.8584747314453 214.3441772460938 185.6479797363281 212.850830078125 185.6479797363281 M 212.850830078125 190.0373992919922 C 211.9213256835938 190.0373992919922 211.1652526855469 189.2813262939453 211.1652526855469 188.3521270751953 C 211.1652526855469 187.4226226806641 211.9213256835938 186.6662292480469 212.850830078125 186.6662292480469 C 213.7800140380859 186.6662292480469 214.5364074707031 187.4226226806641 214.5364074707031 188.3521270751953 C 214.5364074707031 189.2813262939453 213.7800140380859 190.0373992919922 212.850830078125 190.0373992919922 M 212.850830078125 183.6479797363281 C 215.4445343017578 183.6479797363281 217.5546722412109 185.7582397460938 217.5546722412109 188.3521270751953 C 217.5546722412109 190.9456634521484 215.4445343017578 193.0556488037109 212.850830078125 193.0556488037109 C 210.2571258544922 193.0556488037109 208.1470031738281 190.9456634521484 208.1470031738281 188.3521270751953 C 208.1470031738281 185.7582397460938 210.2571258544922 183.6479797363281 212.850830078125 183.6479797363281 Z" stroke="none" fill="#fff"/>
      </g>
      <g id="Path_363" data-name="Path 363" transform="translate(-158.714 -159.54)" fill="#fff">
        <path d="M 181.80126953125 207.6567230224609 L 176.3612823486328 207.6567230224609 C 175.5290679931641 207.6567230224609 174.8520050048828 206.9796600341797 174.8520050048828 206.1474151611328 L 174.8520050048828 160.0489501953125 C 174.8520050048828 159.2169036865234 175.5290679931641 158.5399780273438 176.3612823486328 158.5399780273438 L 185.0714416503906 158.5399780273438 C 192.5165710449219 158.5399780273438 198.5736236572266 164.5968933105469 198.5736236572266 172.0418395996094 L 198.5736236572266 185.4026641845703 C 198.5736236572266 192.8477935791016 192.5165710449219 198.9048461914062 185.0714416503906 198.9048461914062 C 184.2392272949219 198.9048461914062 183.5621643066406 198.2279205322266 183.5621643066406 197.3958892822266 C 183.5621643066406 196.5636596679688 184.2392272949219 195.8865966796875 185.0714416503906 195.8865966796875 C 190.8524780273438 195.8865966796875 195.5556945800781 191.1835327148438 195.5556945800781 185.4026641845703 L 195.5556945800781 172.0418395996094 C 195.5556945800781 166.2611694335938 190.8524780273438 161.5582427978516 185.0714416503906 161.5582427978516 L 177.8702545166016 161.5582427978516 L 177.8702545166016 204.6381683349609 L 181.80126953125 204.6381683349609 C 182.6334838867188 204.6381683349609 183.310546875 205.3152160644531 183.310546875 206.1474151611328 C 183.310546875 206.9796600341797 182.6334838867188 207.6567230224609 181.80126953125 207.6567230224609 Z" stroke="none"/>
        <path d="M 181.80126953125 206.6567230224609 C 182.0825500488281 206.6567230224609 182.310546875 206.4287261962891 182.310546875 206.1474151611328 C 182.310546875 205.8661346435547 182.0825500488281 205.6381683349609 181.80126953125 205.6381683349609 L 176.8702545166016 205.6381683349609 L 176.8702545166016 160.5582427978516 L 185.0714416503906 160.5582427978516 C 191.4039306640625 160.5582427978516 196.5556945800781 165.7096862792969 196.5556945800781 172.0418395996094 L 196.5556945800781 185.4026641845703 C 196.5556945800781 191.7348327636719 191.4039306640625 196.8865966796875 185.0714416503906 196.8865966796875 C 184.7901458740234 196.8865966796875 184.5621643066406 197.1145935058594 184.5621643066406 197.3958892822266 C 184.5621643066406 197.6771545410156 184.7901458740234 197.9048461914062 185.0714416503906 197.9048461914062 C 191.9652557373047 197.9048461914062 197.5736236572266 192.2964630126953 197.5736236572266 185.4026641845703 L 197.5736236572266 172.0418395996094 C 197.5736236572266 165.1483459472656 191.9652557373047 159.5399780273438 185.0714416503906 159.5399780273438 L 176.3612823486328 159.5399780273438 C 176.0796508789062 159.5399780273438 175.8520050048828 159.7679748535156 175.8520050048828 160.0489501953125 L 175.8520050048828 206.1474151611328 C 175.8520050048828 206.4287261962891 176.0796508789062 206.6567230224609 176.3612823486328 206.6567230224609 L 181.80126953125 206.6567230224609 M 181.80126953125 208.6567230224609 L 176.3612823486328 208.6567230224609 C 174.9776611328125 208.6567230224609 173.8520050048828 207.5310516357422 173.8520050048828 206.1474151611328 L 173.8520050048828 160.0489501953125 C 173.8520050048828 158.6654968261719 174.9776611328125 157.5399780273438 176.3612823486328 157.5399780273438 L 185.0714416503906 157.5399780273438 C 193.0679779052734 157.5399780273438 199.5736236572266 164.0454864501953 199.5736236572266 172.0418395996094 L 199.5736236572266 185.4026641845703 C 199.5736236572266 193.3992004394531 193.0679779052734 199.9048461914062 185.0714416503906 199.9048461914062 C 183.6878204345703 199.9048461914062 182.5621643066406 198.7793426513672 182.5621643066406 197.3958892822266 C 182.5621643066406 196.0122528076172 183.6878204345703 194.8865966796875 185.0714416503906 194.8865966796875 C 190.3010711669922 194.8865966796875 194.5556945800781 190.6321258544922 194.5556945800781 185.4026641845703 L 194.5556945800781 172.0418395996094 C 194.5556945800781 166.8125610351562 190.3010711669922 162.5582427978516 185.0714416503906 162.5582427978516 L 178.8702545166016 162.5582427978516 L 178.8702545166016 203.6381683349609 L 181.80126953125 203.6381683349609 C 183.1848907470703 203.6381683349609 184.310546875 204.7638092041016 184.310546875 206.1474151611328 C 184.310546875 207.5310516357422 183.1848907470703 208.6567230224609 181.80126953125 208.6567230224609 Z" stroke="none" fill="#fff"/>
      </g>
      <g id="Path_364" data-name="Path 364" transform="translate(-204.142 -181.862)" fill="#fff">
        <path d="M 248.24560546875 199.8552398681641 C 247.4133605957031 199.8552398681641 246.7362976074219 199.1783142089844 246.7362976074219 198.3462677001953 C 246.7362976074219 195.9950561523438 244.8234710693359 194.0822143554688 242.4722747802734 194.0822143554688 C 241.6400451660156 194.0822143554688 240.9629821777344 193.4052886962891 240.9629821777344 192.5732574462891 C 240.9629821777344 191.7410278320312 241.6400451660156 191.06396484375 242.4722747802734 191.06396484375 C 246.4877319335938 191.06396484375 249.7545471191406 194.3307952880859 249.7545471191406 198.3462677001953 C 249.7545471191406 199.1783142089844 249.07763671875 199.8552398681641 248.24560546875 199.8552398681641 Z" stroke="none"/>
        <path d="M 248.24560546875 198.8552398681641 C 248.5268859863281 198.8552398681641 248.7545471191406 198.6272583007812 248.7545471191406 198.3462677001953 C 248.7545471191406 194.8822631835938 245.9362487792969 192.06396484375 242.4722747802734 192.06396484375 C 242.1909790039062 192.06396484375 241.9629821777344 192.2919616699219 241.9629821777344 192.5732574462891 C 241.9629821777344 192.854248046875 242.1909790039062 193.0822143554688 242.4722747802734 193.0822143554688 C 245.3749084472656 193.0822143554688 247.7362976074219 195.4436187744141 247.7362976074219 198.3462677001953 C 247.7362976074219 198.6272583007812 247.9643249511719 198.8552398681641 248.24560546875 198.8552398681641 M 248.24560546875 200.8552398681641 C 246.8619689941406 200.8552398681641 245.7362976074219 199.7297210693359 245.7362976074219 198.3462677001953 C 245.7362976074219 196.5464630126953 244.2720642089844 195.0822143554688 242.4722747802734 195.0822143554688 C 241.0886383056641 195.0822143554688 239.9629821777344 193.9567108154297 239.9629821777344 192.5732574462891 C 239.9629821777344 191.1896209716797 241.0886383056641 190.06396484375 242.4722747802734 190.06396484375 C 247.0391387939453 190.06396484375 250.7545471191406 193.7793884277344 250.7545471191406 198.3462677001953 C 250.7545471191406 199.7297210693359 249.6290283203125 200.8552398681641 248.24560546875 200.8552398681641 Z" stroke="none" fill="#fff"/>
      </g>
      <g id="Path_365" data-name="Path 365" transform="translate(-120.872 -159.845)" fill="#fff">
        <path d="M 133.8100891113281 174.4469757080078 C 126.1246032714844 174.4469757080078 119.8719940185547 168.1941070556641 119.8719940185547 160.5082702636719 C 119.8719940185547 159.6760559082031 120.5489196777344 158.9989929199219 121.380973815918 158.9989929199219 C 122.2131805419922 158.9989929199219 122.8902435302734 159.6760559082031 122.8902435302734 160.5082702636719 C 122.8902435302734 166.5296630859375 127.7888565063477 171.4284210205078 133.8100891113281 171.4284210205078 C 134.6423034667969 171.4284210205078 135.3193664550781 172.10546875 135.3193664550781 172.9376831054688 C 135.3193664550781 173.7699127197266 134.6423034667969 174.4469757080078 133.8100891113281 174.4469757080078 Z" stroke="none"/>
        <path d="M 133.8100891113281 173.4469757080078 C 134.0913696289062 173.4469757080078 134.3193664550781 173.2186889648438 134.3193664550781 172.9376831054688 C 134.3193664550781 172.6564025878906 134.0913696289062 172.4284210205078 133.8100891113281 172.4284210205078 C 127.2374038696289 172.4284210205078 121.8902435302734 167.0812683105469 121.8902435302734 160.5082702636719 C 121.8902435302734 160.2272796630859 121.6619415283203 159.9989929199219 121.380973815918 159.9989929199219 C 121.099983215332 159.9989929199219 120.8719940185547 160.2272796630859 120.8719940185547 160.5082702636719 C 120.8719940185547 167.6426086425781 126.6760635375977 173.4469757080078 133.8100891113281 173.4469757080078 M 133.8100891113281 175.4469757080078 C 125.5731887817383 175.4469757080078 118.8719940185547 168.7454986572266 118.8719940185547 160.5082702636719 C 118.8719940185547 159.1246490478516 119.9975128173828 157.9989929199219 121.380973815918 157.9989929199219 C 122.7645874023438 157.9989929199219 123.8902435302734 159.1246490478516 123.8902435302734 160.5082702636719 C 123.8902435302734 165.9782562255859 128.3402709960938 170.4284210205078 133.8100891113281 170.4284210205078 C 135.1937103271484 170.4284210205078 136.3193664550781 171.5540771484375 136.3193664550781 172.9376831054688 C 136.3193664550781 174.3213043212891 135.1937103271484 175.4469757080078 133.8100891113281 175.4469757080078 Z" stroke="none" fill="#fff"/>
      </g>
    </g>
  </g>
</svg>
